<svg xmlns="http://www.w3.org/2000/svg" xmlns:xlink="http://www.w3.org/1999/xlink" fill="none" version="1.1" width="217" height="42" viewBox="0 0 217 42"><g><path d="M11.296,23.232L11.488,22.016L17.568,22.016L17.376,23.232L28.032,23.232L27.616,26.272L16.96,26.272L16.096,32.288L10.016,32.288L10.88,26.272L0.864,26.272L1.28,23.232L11.296,23.232ZM28.096,14.112L21.888,15.04L21.504,17.76L26.976,17.76L28.384,16.544L27.776,20.8L15.008,20.8L15.68,16L11.968,16.544L12.384,13.504L16.096,12.96L16.448,10.464L15.424,9.248L22.72,9.248L22.304,12L28.544,11.072L28.096,14.112ZM11.488,11.072L11.52,11.072L10.144,20.8L4.064,20.8L5.056,13.696L3.168,14.112L3.616,11.072L11.776,9.248L11.488,11.072ZM54.56,14.112L53.152,16.224L56.704,16.224L54.816,29.568Q54.688,30.496,53.984,31.12Q53.28,31.744,52.352,31.744L47.552,31.744L50.368,28.896L51.296,22.304L46.112,22.304L44.672,19.584L50.144,19.584L51.36,21.888L51.776,18.976L36.544,18.976L36.128,21.856L37.984,19.584L43.456,19.584L41.248,22.304L36.064,22.304L34.752,31.744L30.208,31.744L32.384,16.224L36,16.224L35.104,14.112L41.184,14.112L42.08,16.224L47.072,16.224L48.48,14.112L54.56,14.112ZM36.288,29.312L37.184,22.912L49.952,22.912L49.056,29.312L36.288,29.312ZM42.24,10.784L42.336,10.208L41.248,9.248L48.544,9.248L48.32,10.784L58.08,10.784L57.696,13.504L32.16,13.504L32.544,10.784L42.24,10.784ZM45.472,26.88L45.696,25.344L40.832,25.344L40.608,26.88L45.472,26.88ZM79.36,11.968L79.072,15.04L68.928,15.04L68.32,19.008L77.824,19.008L77.536,22.08L67.68,22.08L67.072,27.008L77.824,27.008L77.536,30.08L60.32,30.08L62.784,13.184L61.856,11.968L79.36,11.968ZM103.264,11.968L102.048,21.184Q102.048,21.632,101.84,22.032Q101.632,22.432,101.28,22.72Q100.928,23.008,100.496,23.168Q100.064,23.328,99.584,23.328L95.584,23.328L102.048,30.08L95.296,30.08L89.152,23.328L88.224,30.08L82.08,30.08L84.224,13.184L83.296,11.968L103.264,11.968ZM90.08,15.04L89.44,20.256L96.224,20.256L96.832,15.04L90.08,15.04ZM127.328,11.968L126.112,21.792Q125.856,22.72,125.104,23.328Q124.352,23.936,123.648,23.936L112.896,23.936L111.968,30.08L106.144,30.08L108.288,12.864L107.36,11.968L127.328,11.968ZM114.144,15.04L113.504,20.864L119.968,20.864L120.896,15.04L114.144,15.04ZM153.728,14.112L152.32,16.224L155.872,16.224L153.984,29.568Q153.856,30.496,153.152,31.12Q152.448,31.744,151.52,31.744L146.72,31.744L149.536,28.896L150.464,22.304L145.28,22.304L143.84,19.584L149.312,19.584L150.528,21.888L150.944,18.976L135.712,18.976L135.296,21.856L137.152,19.584L142.624,19.584L140.416,22.304L135.232,22.304L133.92,31.744L129.376,31.744L131.552,16.224L135.168,16.224L134.272,14.112L140.352,14.112L141.248,16.224L146.24,16.224L147.648,14.112L153.728,14.112ZM135.456,29.312L136.352,22.912L149.12,22.912L148.224,29.312L135.456,29.312ZM141.408,10.784L141.504,10.208L140.416,9.248L147.712,9.248L147.488,10.784L157.248,10.784L156.864,13.504L131.328,13.504L131.712,10.784L141.408,10.784ZM144.64,26.88L144.864,25.344L140,25.344L139.776,26.88L144.64,26.88ZM177.12,11.072L186.848,11.072L186.144,15.936L183.712,15.936L183.456,17.76L174.816,17.76L176.448,20.192L176.384,20.576L184.672,17.76L184.16,21.408L179.392,23.04L185.152,31.744L179.072,31.744L175.552,26.432L175.04,30.176Q174.88,31.104,174.16,31.696Q173.44,32.288,172.544,32.288L166.816,32.288L169.696,29.312L169.888,27.808L164.16,31.744L158.688,31.744L170.464,23.68L170.592,22.848L164.192,27.168L158.72,27.168L169.92,19.552L169.536,18.944L164.576,22.304L159.104,22.304L165.696,17.76L162.784,17.76L163.04,15.936L160.608,15.936L161.312,11.072L171.04,11.072L171.136,10.4L170.112,9.248L177.376,9.248L177.12,11.072ZM166.208,15.008L180.8,15.008L180.928,14.112L166.336,14.112L166.208,15.008ZM209.408,32.256L210.56,30.944L211.616,23.424L210.784,23.424L209.632,31.616L206.208,31.616L207.36,23.424L206.528,23.424L205.376,31.616L202.144,31.616L203.296,23.424L202.464,23.424L201.216,32.256L197.408,32.256L198.944,21.216L203.616,21.216L204,20.16L199.168,20.16L199.584,17.216L216.32,17.216L215.904,20.16L209.984,20.16L209.6,21.216L215.712,21.216L214.464,30.048Q214.336,30.976,213.824,31.616Q213.312,32.256,212.672,32.256L209.408,32.256ZM196.64,27.488L197.536,27.36L197.12,30.4L187.616,31.68L188.064,28.64L189.472,28.448L189.984,16.576L193.664,16.576L193.248,26.24L195.488,16.576L199.168,16.576L196.64,27.488ZM204.128,13.696L205.728,13.696L206.208,10.336L205.408,9.344L211.424,9.344L210.816,13.696L212.128,13.696L212.672,9.824L216.768,9.824L215.872,16.192L199.712,16.192L200.608,9.856L204.672,9.856L204.128,13.696ZM192.8,12.608L193.088,10.592L192.32,9.344L197.888,9.344L197.44,12.608L199.616,12.608L199.232,15.328L189.888,15.328L190.272,12.608L192.8,12.608Z" fill="#000000" fill-opacity="1"/></g></svg>