<svg xmlns="http://www.w3.org/2000/svg" xmlns:xlink="http://www.w3.org/1999/xlink" fill="none" version="1.1" width="16" height="16" viewBox="0 0 16 16"><defs><clipPath id="master_svg0_615_202907"><rect x="0" y="0" width="16" height="16" rx="0"/></clipPath></defs><g clip-path="url(#master_svg0_615_202907)"><g><path d="M1,8C1,4.13438,4.13438,1,8,1C11.8656,1,15,4.13438,15,8C15,11.8656,11.8656,15,8,15C4.13438,15,1,11.8656,1,8ZM2.1875,8C2.1875,11.2094,4.79063,13.8125,8,13.8125C11.2094,13.8125,13.8125,11.2094,13.8125,8C13.8125,4.79063,11.2094,2.1875,8,2.1875C4.79063,2.1875,2.1875,4.79063,2.1875,8ZM10.18846,5.51562L10.92128,5.51562C11.0228,5.51562,11.0822,5.63125,11.0213,5.71406L7.73064,10.27656C7.68465,10.34076,7.62402,10.39306,7.55378,10.42914C7.48354,10.46523,7.4057,10.48405,7.32674,10.48405C7.24777,10.48405,7.16994,10.46523,7.09969,10.42914C7.02945,10.39306,6.96882,10.34076,6.92283,10.27656L4.97595,7.57656C4.91657,7.49375,4.97595,7.37813,5.07751,7.37813L5.81032,7.37813C5.97126,7.37813,6.12126,7.45625,6.21501,7.58594L7.32752,9.12969L9.78378,5.72344C9.87753,5.59219,10.02909,5.51562,10.18846,5.51562Z" fill-rule="evenodd" fill="#52C41A" fill-opacity="1"/></g></g></svg>