<svg xmlns="http://www.w3.org/2000/svg" xmlns:xlink="http://www.w3.org/1999/xlink" fill="none" version="1.1" width="16" height="16" viewBox="0 0 16 16"><defs><clipPath id="master_svg0_615_201802"><rect x="0" y="0" width="16" height="16" rx="0"/></clipPath></defs><g clip-path="url(#master_svg0_615_201802)"><g><path d="M8,1C4.13438,1,1,4.13438,1,8C1,11.8656,4.13438,15,8,15C11.8656,15,15,11.8656,15,8C15,4.13438,11.8656,1,8,1ZM11.0234,5.71406C11.0234,5.71406,7.73281,10.27656,7.73281,10.27656C7.68682,10.34076,7.62619,10.39306,7.55595,10.42914C7.48571,10.46523,7.40787,10.48405,7.32891,10.48405C7.24994,10.48405,7.17211,10.46523,7.10186,10.42914C7.03162,10.39306,6.97099,10.34076,6.925,10.27656C6.925,10.27656,4.97656,7.57656,4.97656,7.57656C4.91719,7.49375,4.97656,7.37813,5.07812,7.37813C5.07812,7.37813,5.81094,7.37813,5.81094,7.37813C5.97031,7.37813,6.12187,7.45469,6.21562,7.58594C6.21562,7.58594,7.32812,9.12969,7.32812,9.12969C7.32812,9.12969,9.78438,5.72344,9.78438,5.72344C9.87813,5.59375,10.02812,5.51562,10.18906,5.51562C10.18906,5.51562,10.92188,5.51562,10.92188,5.51562C11.0234,5.51562,11.0828,5.63125,11.0234,5.71406C11.0234,5.71406,11.0234,5.71406,11.0234,5.71406Z" fill="#52C41A" fill-opacity="1"/></g></g></svg>