<svg xmlns="http://www.w3.org/2000/svg" xmlns:xlink="http://www.w3.org/1999/xlink" fill="none" version="1.1" width="16" height="16" viewBox="0 0 16 16"><defs><clipPath id="master_svg0_615_202908"><rect x="0" y="0" width="16" height="16" rx="0"/></clipPath></defs><g clip-path="url(#master_svg0_615_202908)"><g><path d="M1,8.015625C1,4.150005,4.13438,1.015625,8,1.015625C11.8656,1.015625,15,4.150005,15,8.015625C15,11.881225,11.8656,15.015625,8,15.015625C4.13438,15.015625,1,11.881225,1,8.015625ZM2.1875,8.015625C2.1875,11.225025,4.79063,13.828125,8,13.828125C11.2094,13.828125,13.8125,11.225025,13.8125,8.015625C13.8125,4.806255,11.2094,2.203125,8,2.203125C4.79063,2.203125,2.1875,4.806255,2.1875,8.015625ZM10.58461,5.418235C10.65336,5.418235,10.70961,5.474485,10.70961,5.543235C10.70961,5.572925,10.70024,5.602605,10.68149,5.624485L8.648679999999999,8.046355L10.67836,10.466675C10.69711,10.490115,10.70805,10.518235,10.70805,10.547925C10.70805,10.618235,10.6518,10.672925,10.58305,10.672925L9.55181,10.668235L8.000250000000001,8.818235L6.44869,10.669795L5.41588,10.674485C5.34713,10.674485,5.29088,10.618235,5.29088,10.549485C5.29121,10.519805,5.30169,10.491135,5.32057,10.468235L7.35338,8.047925L5.32057,5.626045C5.30182,5.602605,5.29088,5.574485,5.29088,5.544795C5.29088,5.474485,5.34713,5.419795,5.41588,5.419795L6.44869,5.424485L8.000250000000001,7.274485L9.55337,5.422925L10.58461,5.418235Z" fill-rule="evenodd" fill="#FF4D4F" fill-opacity="1"/></g></g></svg>