<svg xmlns="http://www.w3.org/2000/svg" xmlns:xlink="http://www.w3.org/1999/xlink" fill="none" version="1.1" width="16" height="16" viewBox="0 0 16 16"><defs><clipPath id="master_svg0_615_201756"><rect x="0" y="0" width="16" height="16" rx="0"/></clipPath></defs><g clip-path="url(#master_svg0_615_201756)"><g><path d="M8,1C4.13438,1,1,4.13438,1,8C1,11.8656,4.13438,15,8,15C11.8656,15,15,11.8656,15,8C15,4.13438,11.8656,1,8,1ZM10.58438,10.65938C10.58438,10.65938,9.55313,10.65469,9.55313,10.65469C9.55313,10.65469,8,8.80313,8,8.80313C8,8.80313,6.44844,10.65312,6.44844,10.65312C6.44844,10.65312,5.41563,10.65781,5.41563,10.65781C5.34688,10.65781,5.29063,10.60312,5.29063,10.53281C5.29063,10.50313,5.30156,10.475,5.32031,10.45156C5.32031,10.45156,7.35313,8.02969,7.35313,8.02969C7.35313,8.02969,5.32031,5.60938,5.32031,5.60938C5.30143,5.58647,5.29096,5.5578,5.29063,5.52812C5.29063,5.45937,5.34688,5.40312,5.41563,5.40312C5.41563,5.40312,6.44844,5.40781,6.44844,5.40781C6.44844,5.40781,8,7.25938,8,7.25938C8,7.25938,9.55156,5.40938,9.55156,5.40938C9.55156,5.40938,10.58281,5.40469,10.58281,5.40469C10.65156,5.40469,10.70781,5.45937,10.70781,5.52969C10.70781,5.55937,10.69688,5.5875,10.67813,5.61094C10.67813,5.61094,8.64844,8.03125,8.64844,8.03125C8.64844,8.03125,10.67969,10.45312,10.67969,10.45312C10.69844,10.47656,10.70938,10.50469,10.70938,10.53438C10.70938,10.60313,10.65313,10.65938,10.58438,10.65938Z" fill="#FF4D4F" fill-opacity="1"/></g></g></svg>