<svg xmlns="http://www.w3.org/2000/svg" xmlns:xlink="http://www.w3.org/1999/xlink" fill="none" version="1.1" width="18" height="18" viewBox="0 0 18 18"><defs><clipPath id="master_svg0_615_201714"><rect x="0" y="0" width="18" height="18" rx="0"/></clipPath></defs><g clip-path="url(#master_svg0_615_201714)"><g><path d="M14.69538681640625,2.160384025L15.44478681640625,2.910618625C15.45788681640625,2.923678625,15.46818681640625,2.9391876249999997,15.47528681640625,2.956259625C15.48238681640625,2.973331625,15.48598681640625,2.991630625,15.48598681640625,3.0101106250000003C15.48598681640625,3.028590625,15.48238681640625,3.046889625,15.47528681640625,3.063961625C15.46818681640625,3.081033625,15.45788681640625,3.096542625,15.44478681640625,3.109602625L2.92650681640625,15.627340625C2.90013681640625,15.653640625,2.86438681640625,15.668540625,2.82710681640625,15.668540625C2.78982681640625,15.668540625,2.75406681640625,15.653640625,2.72769681640625,15.627340625L1.9772888164062499,14.876940625C1.9509368164062502,14.850540625,1.93613381640625,14.814840625,1.93613381640625,14.777540625C1.93613381640625,14.740240625,1.9509368164062502,14.704440625,1.9772888164062499,14.678140625L3.83740681640625,12.818540625Q2.43449681640625,11.552730625,1.43799181640625,9.453900625C1.37115201640625,9.312370625,1.33648681640625,9.157780625000001,1.33648681640625,9.001260625C1.33648681640625,8.844740625,1.37115201640625,8.690160625,1.43799181640625,8.548630625000001Q3.93232681640625,3.269910625,9.00009681640625,3.269910625Q10.98396681640625,3.269910625,12.57388681640625,4.082020625L14.49638681640625,2.160384025C14.50948681640625,2.147309225,14.52498681640625,2.136936925,14.54208681640625,2.129860025C14.55918681640625,2.122783215,14.57748681640625,2.119140625,14.59588681640625,2.119140625C14.61438681640625,2.119140625,14.63268681640625,2.122783215,14.64978681640625,2.129860025C14.66688681640625,2.136936925,14.68238681640625,2.147309225,14.69538681640625,2.160384025ZM9.00009681640625,4.535540624999999C6.16474681640625,4.535540624999999,4.08877681640625,5.973430625000001,2.62451681640625,9.000380625C3.22216681640625,10.235770625,3.92177681640625,11.206260625,4.7333668164062495,11.922570625L6.19972681640625,10.456200625C5.88747681640625,9.870970625,5.77158681640625,9.200880625,5.86916681640625,8.544770625C5.96673681640625,7.888660625,6.27260681640625,7.281280625,6.74164681640625,6.812240625C7.21068681640625,6.343200625,7.81806681640625,6.037340625000001,8.47417681640625,5.939760625C9.130276816406251,5.842190625000001,9.80037681640625,5.9580706249999995,10.38560681640625,6.270330625L11.62138681640625,5.034580625C10.83051681640625,4.700070625,9.95881681640625,4.535540624999999,9.00009681640625,4.535540624999999ZM14.35618681640625,5.361710625000001Q15.63528681640625,6.594110625,16.56218681640625,8.546870625C16.62908681640625,8.688400625,16.663686816406248,8.842980625,16.663686816406248,8.999510625C16.663686816406248,9.156030625,16.62908681640625,9.310610624999999,16.56218681640625,9.452140625Q14.06788681640625,14.730840625,9.00009681640625,14.730840625Q7.17197681640625,14.730840625,5.67783681640625,14.040940625L6.64691681640625,13.071840625Q7.72269681640625,13.465240625,9.00009681640625,13.465240625C11.83718681640625,13.465240625,13.91318681640625,12.027340625,15.37568681640625,9.000380625C14.82638681640625,7.864840625,14.19108681640625,6.953060625,13.46178681640625,6.256090625L14.35618681640625,5.361710625000001ZM7.17533681640625,8.108640625C7.03476681640625,8.384900625,6.96134681640625,8.690420625,6.96103681640625,9.000380625C6.96081681640625,9.204400625,6.99230681640625,9.407210625000001,7.05437681640625,9.601560625000001L9.53095681640625,7.124970625C9.23567681640625,7.030720625,8.92231681640625,7.007450625,8.61634681640625,7.057060625C8.31037681640625,7.106660625,8.02042681640625,7.227740625,7.77003681640625,7.410460625C7.51965681640625,7.593180625,7.31590681640625,7.832380625,7.17533681640625,8.108640625ZM8.74977681640625,10.960720625C8.80918681640625,10.966170625,8.86912681640625,10.968980625,8.92994681640625,10.968980625C9.188526816406249,10.969120625,9.44459681640625,10.918290625,9.68351681640625,10.819400625C9.92243681640625,10.720510625,10.13952681640625,10.575500625,10.32236681640625,10.392660625C10.50521681640625,10.209820625,10.65022681640625,9.992730625,10.74911681640625,9.753810625C10.84800681640625,9.514880625,10.89882681640625,9.258810624999999,10.89869681640625,9.000230625C10.89869681640625,8.939410625,10.89587681640625,8.879470625,10.89042681640625,8.820060625L11.81888681640625,7.891590625C12.03278681640625,8.450020625,12.08028681640625,9.058460625,11.95578681640625,9.643330625C11.83118681640625,10.228200625,11.53988681640625,10.764480625,11.11702681640625,11.187320625C10.69418681640625,11.610160625,10.15791681640625,11.901470625,9.57304681640625,12.026030625C8.988166816406249,12.150540625,8.37973681640625,12.103060625,7.82129681640625,11.889190625L8.74977681640625,10.960720625Z" fill-rule="evenodd" fill="#000000" fill-opacity="0.25"/></g></g></svg>