<svg xmlns="http://www.w3.org/2000/svg" xmlns:xlink="http://www.w3.org/1999/xlink" fill="none" version="1.1" width="18" height="18" viewBox="0 0 18 18"><defs><clipPath id="master_svg0_615_201710"><rect x="0" y="0" width="18" height="18" rx="0"/></clipPath></defs><g clip-path="url(#master_svg0_615_201710)"><g><path d="M16.56218681640625,8.54648125C14.89578681640625,5.03613125,12.37688681640625,3.26953125,9.00009681640625,3.26953125C5.62158681640625,3.26953125,3.10439681640625,5.03613125,1.43799181640625,8.54824125C1.37115201640625,8.68977125,1.3364868164062502,8.844351249999999,1.33648681640625,9.000881249999999C1.33648681640625,9.15740125,1.37115201640625,9.311981249999999,1.43799181640625,9.45351125C3.10439681640625,12.96387125,5.62334681640625,14.73043125,9.00009681640625,14.73043125C12.37858681640625,14.73043125,14.89578681640625,12.96387125,16.56218681640625,9.45176125C16.69758681640625,9.166991249999999,16.69758681640625,8.83652125,16.56218681640625,8.54648125C16.56218681640625,8.54648125,16.56218681640625,8.54648125,16.56218681640625,8.54648125ZM9.00009681640625,13.46483125C6.16474681640625,13.46483125,4.08877681640625,12.02695125,2.62451681640625,9.00000125C4.08877681640625,5.97305125,6.16474681640625,4.53515125,9.00009681640625,4.53515125C11.83548681640625,4.53515125,13.91138681640625,5.97305125,15.37568681640625,9.00000125C13.91318681640625,12.02695125,11.83718681640625,13.46483125,9.00009681640625,13.46483125ZM8.92978681640625,5.90625125C7.22119681640625,5.90625125,5.83603681640625,7.29141125,5.83603681640625,9.00000125C5.83603681640625,10.70859125,7.22119681640625,12.09375125,8.92978681640625,12.09375125C10.63838681640625,12.09375125,12.02358681640625,10.70859125,12.02358681640625,9.00000125C12.02358681640625,7.29141125,10.63838681640625,5.90625125,8.92978681640625,5.90625125ZM8.92978681640625,10.96875125C7.84170681640625,10.96875125,6.96103681640625,10.08808125,6.96103681640625,9.00000125C6.96103681640625,7.91191125,7.84170681640625,7.03125125,8.92978681640625,7.03125125C10.01787681640625,7.03125125,10.89853681640625,7.91191125,10.89853681640625,9.00000125C10.89853681640625,10.08808125,10.01787681640625,10.96875125,8.92978681640625,10.96875125Z" fill="#000000" fill-opacity="0.44999998807907104"/></g></g></svg>