<?xml version="1.0" encoding="utf-8"?>
<svg width="52px" height="45px" viewBox="0 0 52 45" version="1.1" xmlns="http://www.w3.org/2000/svg">
  <defs>
    <filter x="-9.4%" y="-6.2%" width="118.8%" height="122.5%" filterUnits="objectBoundingBox" id="filter-1">
      <feOffset dx="0" dy="1" in="SourceAlpha" result="shadowOffsetOuter1"/>
      <feGaussianBlur stdDeviation="1" in="shadowOffsetOuter1" result="shadowBlurOuter1"/>
      <feColorMatrix values="0 0 0 0 0   0 0 0 0 0   0 0 0 0 0  0 0 0 0.15 0" type="matrix" in="shadowBlurOuter1" result="shadowMatrixOuter1"/>
      <feMerge>
        <feMergeNode in="shadowMatrixOuter1"/>
        <feMergeNode in="SourceGraphic"/>
      </feMerge>
    </filter>
    <rect id="path-2" x="0" y="0" width="48" height="40" rx="4"/>
    <filter x="-4.2%" y="-2.5%" width="108.3%" height="110.0%" filterUnits="objectBoundingBox" id="filter-4">
      <feOffset dx="0" dy="1" in="SourceAlpha" result="shadowOffsetOuter1"/>
      <feGaussianBlur stdDeviation="0.5" in="shadowOffsetOuter1" result="shadowBlurOuter1"/>
      <feColorMatrix values="0 0 0 0 0   0 0 0 0 0   0 0 0 0 0  0 0 0 0.1 0" type="matrix" in="shadowBlurOuter1"/>
    </filter>
  </defs>
  <g id="配置面板" width="48" height="40" stroke="none" stroke-width="1" fill="none" fill-rule="evenodd">
    <g id="setting-copy-2" width="48" height="40" transform="translate(-1190.000000, -136.000000)">
      <g id="Group-8" width="48" height="40" transform="translate(1167.000000, 0.000000)">
        <g id="Group-5-Copy-5" filter="url(#filter-1)" transform="translate(25.000000, 137.000000)">
          <mask id="mask-3" fill="white">
            <rect x="0" y="0" width="48" height="40" rx="4" transform="matrix(1, 0, 0, 1, 0, 0)"/>
          </mask>
          <g id="Rectangle-18">
            <rect x="0" y="0" width="48" height="40" rx="4" transform="matrix(1, 0, 0, 1, 0, 0)" fill="white" fill-opacity="1" filter="url(#filter-4)"/>
            <rect x="0" y="0" width="48" height="40" rx="4" transform="matrix(1, 0, 0, 1, 0, 0)" fill="#F0F2F5" fill-rule="evenodd"/>
          </g>
          <rect id="Rectangle-18" fill="#f0f2f5" mask="url(#mask-3)" x="0" y="0" width="16" height="40"/>
          <rect id="Rectangle-11" fill="#001529" mask="url(#mask-3)" x="0" y="0" width="48" height="10"/>
        </g>
      </g>
    </g>
  </g>
  <rect x="1.912" y="11.007" width="15.904" height="30.187" style="fill: rgb(216, 216, 216); paint-order: stroke;" transform="matrix(0.999914, 0.013096, -0.013096, 0.999914, 0.383536, -0.048505)" rx="4.73" ry="4.73"/>
  <path style="fill: rgb(216, 216, 216); stroke: rgb(255, 255, 255); paint-order: stroke;" d="M 2.015 40.294" transform="matrix(0.999986, 0.00521, -0.00521, 0.999986, 0.209953, -0.009951)"/>
  <rect x="1.965" y="10.937" width="16.057" height="27.086" style="fill: rgb(216, 216, 216);"/>
  <rect x="11.046" y="33.225" width="6.933" height="7.944" style="fill: rgb(216, 216, 216);"/>
</svg>