<svg xmlns="http://www.w3.org/2000/svg" xmlns:xlink="http://www.w3.org/1999/xlink" fill="none" version="1.1" width="18" height="18" viewBox="0 0 18 18"><defs><clipPath id="master_svg0_615_201712"><rect x="0" y="0" width="18" height="18" rx="0"/></clipPath></defs><g clip-path="url(#master_svg0_615_201712)"><g><path d="M13.5,6L15,6C15.4142,6,15.75,6.33579,15.75,6.75L15.75,15.75C15.75,16.1642,15.4142,16.5,15,16.5L3,16.5C2.585786,16.5,2.25,16.1642,2.25,15.75L2.25,6.75C2.25,6.33579,2.585786,6,3,6L4.5,6L4.5,5.25C4.5,2.76472,6.51472,0.75,9,0.75C11.48528,0.75,13.5,2.76472,13.5,5.25L13.5,6ZM8.25,11.799L8.25,13.5L9.75,13.5L9.75,11.799C10.55767,11.3327,10.74854,10.25021,10.14907,9.53578C9.54959,8.82136,8.45041,8.82136,7.85093,9.53578C7.25146,10.25021,7.44233,11.3327,8.25,11.799ZM12,6L12,5.25C12,3.59315,10.65685,2.25,9,2.25C7.34315,2.25,6,3.59315,6,5.25L6,6L12,6Z" fill="#D8D8D8" fill-opacity="1"/></g></g></svg>