<svg xmlns="http://www.w3.org/2000/svg" xmlns:xlink="http://www.w3.org/1999/xlink" fill="none" version="1.1" width="18" height="18" viewBox="0 0 18 18"><g><g><path d="M1.79998779296875,9.192809904632568L1.79998779296875,4.371421904632569C1.79998779296875,4.167633904632568,1.87900809296875,3.982302904632568,2.00807979296875,3.8443969046325686C2.02036479296875,3.8312649046325684,2.03307979296875,3.8185949046325685,2.04619479296875,3.8064029046325683C2.05739579296875,3.7959859046325684,2.06890779296875,3.7858989046325684,2.08071379296875,3.7761549046325684C2.21243979296875,3.6674450046325684,2.38086479296875,3.601613574632568,2.56461879296875,3.6000291694325686L2.5714097929687503,3.5999999046325684L15.42858779296875,3.5999999046325684C15.85458779296875,3.5999999046325684,16.19998779296875,3.9453769046325684,16.19998779296875,4.371421904632569L16.19998779296875,9.192809904632568C16.19998779296875,9.197499904632569,16.19998779296875,9.20216990463257,16.199887792968752,9.206839904632568L16.199887792968752,14.014199904632568C16.199887792968752,14.440199904632568,15.85448779296875,14.78559990463257,15.42848779296875,14.78559990463257L2.5714097929687503,14.78559990463257C2.14536479296875,14.78559990463257,1.79998779296875,14.440199904632568,1.79998779296875,14.014199904632568L1.79998779296875,9.192809904632568ZM3.34282779296875,5.914269904632569L8.537067792968749,9.809949904632568C8.81135779296875,10.015659904632567,9.18849779296875,10.015659904632567,9.462777792968751,9.809949904632568L14.65718779296875,5.914169904632568L14.65718779296875,5.142839904632568L13.11418779296875,5.142839904632568L8.99992779296875,8.228529904632568L4.88567779296875,5.142839904632568L3.34282779296875,5.142839904632568L3.34282779296875,5.914269904632569Z" fill-rule="evenodd" fill="#000000" fill-opacity="0.15000000596046448"/></g></g></svg>